HIERARCHY
ROOT Hips
{
  OFFSET 0.143595 90.2887 1.75943
  CHANNELS 6 Xposition Yposition Zposition Zrotation Xrotation Yrotation
  JOINT Spine
  {
    OFFSET 0 9.9235 -1.2273
    CHANNELS 6 Xposition Yposition Zposition Zrotation Xrotation Yrotation
    JOINT Spine1
    {
      OFFSET -0.0001 11.6454 -1.4223
      CHANNELS 6 Xposition Yposition Zposition Zrotation Xrotation Yrotation
      JOINT Spine2
      {
        OFFSET 0.0001 13.3602 -1.6265
        CHANNELS 6 Xposition Yposition Zposition Zrotation Xrotation Yrotation
        JOINT Neck
        {
          OFFSET 0 15.0325 0.7929
          CHANNELS 6 Xposition Yposition Zposition Zrotation Xrotation Yrotation
          JOINT Head
          {
            OFFSET 0 10.3218 3.1424
            CHANNELS 6 Xposition Yposition Zposition Zrotation Xrotation Yrotation
            JOINT HeadTop_End
            {
              OFFSET 0.0002 18.4747 6.6364
              CHANNELS 6 Xposition Yposition Zposition Zrotation Xrotation Yrotation
              End Site
              {
                OFFSET 0 0 0
              }
            }
            JOINT LeftEye
            {
              OFFSET 2.9479 7.6817 9.1207
              CHANNELS 6 Xposition Yposition Zposition Zrotation Xrotation Yrotation
              End Site
              {
                OFFSET 0 0 0
              }
            }
            JOINT RightEye
            {
              OFFSET -2.9445 7.6817 9.1205
              CHANNELS 6 Xposition Yposition Zposition Zrotation Xrotation Yrotation
              End Site
              {
                OFFSET 0 0 0
              }
            }
          }
        }
        JOINT LeftShoulder
        {
          OFFSET 6.1058 9.1104 0.7056
          CHANNELS 6 Xposition Yposition Zposition Zrotation Xrotation Yrotation
          JOINT LeftArm
          {
            OFFSET 12.655 -0.2659 -2.6009
            CHANNELS 6 Xposition Yposition Zposition Zrotation Xrotation Yrotation
            JOINT LeftForeArm
            {
              OFFSET 27.4047 0 0
              CHANNELS 6 Xposition Yposition Zposition Zrotation Xrotation Yrotation
              JOINT LeftHand
              {
                OFFSET 27.6145 0 0
                CHANNELS 6 Xposition Yposition Zposition Zrotation Xrotation Yrotation
                JOINT LeftHandMiddle1
                {
                  OFFSET 12.7755 0 0
                  CHANNELS 6 Xposition Yposition Zposition Zrotation Xrotation Yrotation
                  JOINT LeftHandMiddle2
                  {
                    OFFSET 3.614 0 0
                    CHANNELS 6 Xposition Yposition Zposition Zrotation Xrotation Yrotation
                    JOINT LeftHandMiddle3
                    {
                      OFFSET 3.4598 0 0
                      CHANNELS 6 Xposition Yposition Zposition Zrotation Xrotation Yrotation
                      End Site
                      {
                        OFFSET 3.6802 0 0
                      }
                    }
                  }
                }
                JOINT LeftHandThumb1
                {
                  OFFSET 3.7888 -2.167 3.0031
                  CHANNELS 6 Xposition Yposition Zposition Zrotation Xrotation Yrotation
                  JOINT LeftHandThumb2
                  {
                    OFFSET 3.6754 -2.122 2.122
                    CHANNELS 6 Xposition Yposition Zposition Zrotation Xrotation Yrotation
                    JOINT LeftHandThumb3
                    {
                      OFFSET 3.3944 -1.9597 1.9598
                      CHANNELS 6 Xposition Yposition Zposition Zrotation Xrotation Yrotation
                      End Site
                      {
                        OFFSET 2.6794 -1.5469 1.5469
                      }
                    }
                  }
                }
                JOINT LeftHandIndex1
                {
                  OFFSET 12.2666 -0.2317 2.8221
                  CHANNELS 6 Xposition Yposition Zposition Zrotation Xrotation Yrotation
                  JOINT LeftHandIndex2
                  {
                    OFFSET 3.892 0 0
                    CHANNELS 6 Xposition Yposition Zposition Zrotation Xrotation Yrotation
                    JOINT LeftHandIndex3
                    {
                      OFFSET 3.4152 0 0
                      CHANNELS 6 Xposition Yposition Zposition Zrotation Xrotation Yrotation
                      End Site
                      {
                        OFFSET 3.078 0 0
                      }
                    }
                  }
                }
                JOINT LeftHandRing1
                {
                  OFFSET 12.147 0.0099 -2.2166
                  CHANNELS 6 Xposition Yposition Zposition Zrotation Xrotation Yrotation
                  JOINT LeftHandRing2
                  {
                    OFFSET 3.6012 0 0
                    CHANNELS 6 Xposition Yposition Zposition Zrotation Xrotation Yrotation
                    JOINT LeftHandRing3
                    {
                      OFFSET 3.3073 0 0
                      CHANNELS 6 Xposition Yposition Zposition Zrotation Xrotation Yrotation
                      End Site
                      {
                        OFFSET 3.6601 0 0
                      }
                    }
                  }
                }
                JOINT LeftHandPinky1
                {
                  OFFSET 10.9082 -0.2264 -4.7258
                  CHANNELS 6 Xposition Yposition Zposition Zrotation Xrotation Yrotation
                  JOINT LeftHandPinky2
                  {
                    OFFSET 4.1367 0 0
                    CHANNELS 6 Xposition Yposition Zposition Zrotation Xrotation Yrotation
                    JOINT LeftHandPinky3
                    {
                      OFFSET 2.5948 0 0
                      CHANNELS 6 Xposition Yposition Zposition Zrotation Xrotation Yrotation
                      End Site
                      {
                        OFFSET 2.9239 0 0
                      }
                    }
                  }
                }
              }
            }
          }
        }
        JOINT RightShoulder
        {
          OFFSET -6.1057 9.1105 0.7056
          CHANNELS 6 Xposition Yposition Zposition Zrotation Xrotation Yrotation
          JOINT RightArm
          {
            OFFSET -12.655 -0.266 -2.6009
            CHANNELS 6 Xposition Yposition Zposition Zrotation Xrotation Yrotation
            JOINT RightForeArm
            {
              OFFSET -27.4047 0 0
              CHANNELS 6 Xposition Yposition Zposition Zrotation Xrotation Yrotation
              JOINT RightHand
              {
                OFFSET -27.6145 0 0
                CHANNELS 6 Xposition Yposition Zposition Zrotation Xrotation Yrotation
                JOINT RightHandMiddle1
                {
                  OFFSET -12.7755 0 0
                  CHANNELS 6 Xposition Yposition Zposition Zrotation Xrotation Yrotation
                  JOINT RightHandMiddle2
                  {
                    OFFSET -3.614 0 0
                    CHANNELS 6 Xposition Yposition Zposition Zrotation Xrotation Yrotation
                    JOINT RightHandMiddle3
                    {
                      OFFSET -3.4598 0 0
                      CHANNELS 6 Xposition Yposition Zposition Zrotation Xrotation Yrotation
                      End Site
                      {
                        OFFSET -3.6802 0 0
                      }
                    }
                  }
                }
                JOINT RightHandThumb1
                {
                  OFFSET -3.7888 -2.167 3.0031
                  CHANNELS 6 Xposition Yposition Zposition Zrotation Xrotation Yrotation
                  JOINT RightHandThumb2
                  {
                    OFFSET -3.6754 -2.122 2.122
                    CHANNELS 6 Xposition Yposition Zposition Zrotation Xrotation Yrotation
                    JOINT RightHandThumb3
                    {
                      OFFSET -3.3944 -1.9597 1.9598
                      CHANNELS 6 Xposition Yposition Zposition Zrotation Xrotation Yrotation
                      End Site
                      {
                        OFFSET -2.6794 -1.5469 1.5469
                      }
                    }
                  }
                }
                JOINT RightHandIndex1
                {
                  OFFSET -12.2666 -0.2317 2.8221
                  CHANNELS 6 Xposition Yposition Zposition Zrotation Xrotation Yrotation
                  JOINT RightHandIndex2
                  {
                    OFFSET -3.892 0 0
                    CHANNELS 6 Xposition Yposition Zposition Zrotation Xrotation Yrotation
                    JOINT RightHandIndex3
                    {
                      OFFSET -3.4152 0 0
                      CHANNELS 6 Xposition Yposition Zposition Zrotation Xrotation Yrotation
                      End Site
                      {
                        OFFSET -3.078 0 0
                      }
                    }
                  }
                }
                JOINT RightHandRing1
                {
                  OFFSET -12.147 0.0099 -2.2166
                  CHANNELS 6 Xposition Yposition Zposition Zrotation Xrotation Yrotation
                  JOINT RightHandRing2
                  {
                    OFFSET -3.6012 0 0
                    CHANNELS 6 Xposition Yposition Zposition Zrotation Xrotation Yrotation
                    JOINT RightHandRing3
                    {
                      OFFSET -3.3073 0 0
                      CHANNELS 6 Xposition Yposition Zposition Zrotation Xrotation Yrotation
                      End Site
                      {
                        OFFSET -3.6601 0 0
                      }
                    }
                  }
                }
                JOINT RightHandPinky1
                {
                  OFFSET -10.9082 -0.2264 -4.7258
                  CHANNELS 6 Xposition Yposition Zposition Zrotation Xrotation Yrotation
                  JOINT RightHandPinky2
                  {
                    OFFSET -4.1367 0 0
                    CHANNELS 6 Xposition Yposition Zposition Zrotation Xrotation Yrotation
                    JOINT RightHandPinky3
                    {
                      OFFSET -2.5948 0 0
                      CHANNELS 6 Xposition Yposition Zposition Zrotation Xrotation Yrotation
                      End Site
                      {
                        OFFSET -2.9239 0 0
                      }
                    }
                  }
                }
              }
            }
          }
        }
      }
    }
  }
  JOINT RightUpLeg
  {
    OFFSET -9.1245 -6.6564 -0.0554
    CHANNELS 6 Xposition Yposition Zposition Zrotation Xrotation Yrotation
    JOINT RightLeg
    {
      OFFSET -0.2447 -40.5954 -0.5145
      CHANNELS 6 Xposition Yposition Zposition Zrotation Xrotation Yrotation
      JOINT RightFoot
      {
        OFFSET 0.2447 -42.0479 -2.0602
        CHANNELS 6 Xposition Yposition Zposition Zrotation Xrotation Yrotation
        JOINT RightToeBase
        {
          OFFSET -0.3734 -10.4922 12.6407
          CHANNELS 6 Xposition Yposition Zposition Zrotation Xrotation Yrotation
          End Site
          {
            OFFSET 0 0 9.9925
          }
        }
      }
    }
  }
  JOINT LeftUpLeg
  {
    OFFSET 9.1245 -6.6564 -0.0554
    CHANNELS 6 Xposition Yposition Zposition Zrotation Xrotation Yrotation
    JOINT LeftLeg
    {
      OFFSET 0.2447 -40.5954 -0.517
      CHANNELS 6 Xposition Yposition Zposition Zrotation Xrotation Yrotation
      JOINT LeftFoot
      {
        OFFSET -0.2447 -42.048 -2.0576
        CHANNELS 6 Xposition Yposition Zposition Zrotation Xrotation Yrotation
        JOINT LeftToeBase
        {
          OFFSET 0.3734 -10.4922 12.6407
          CHANNELS 6 Xposition Yposition Zposition Zrotation Xrotation Yrotation
          End Site
          {
            OFFSET 0 0 9.9925
          }
        }
      }
    }
  }
}
MOTION
Frames: 4
Frame Time: 0.0166667
3.54128 91.182 84.3975 0.88608 18.5023 2.68989 -8.88178e-016 9.9235 -1.2273 4.52526 8.99129 -7.73218 -0.0001 11.6454 -1.4223 3.17885 6.58543 -4.53787 0.0001 13.3602 -1.6265 3.39922 6.5746 -4.44904 0 15.0325 0.7929 -1.29073 -6.90113 1.54285 0 10.3218 3.1424 -5.74625 -8.38747 6.86369 0.0002 18.4747 6.6364 -0 0 1.59028e-015 2.9479 7.6817 9.1207 -0 0 1.59028e-015 -2.9445 7.6817 9.1205 -0 0 1.59028e-015 6.1058 9.1104 0.7056 24.5063 -1.31786 -8.10757 12.655 -0.2659 -2.6009 -34.7016 -26.0176 -8.28211 27.4047 -2.84217e-014 7.10543e-015 4.11721e-006 2.43276e-006 -72.0438 27.6145 -2.84217e-014 7.10543e-015 12.8398 1.59553 0.0857919 12.7755 0 0 -26.361 -1.60413 4.75389 3.614 0 -3.55271e-015 -40.6396 -1.41685 3.825 3.4598 0 -3.55271e-015 -2.05337 -0.00376586 0.210261 3.7888 -2.167 3.0031 3.58965 -5.18685 -5.72826 3.6754 -2.122 2.122 2.47789 10.0074 31.4013 3.3944 -1.9597 1.9598 17.7464 7.93603 33.4345 12.2666 -0.2317 2.8221 -35.3044 0.654953 0.47414 3.892 0 0 -42.1396 -1.51864 3.94051 3.4152 0 7.10543e-015 -3.14962 -0.00886617 0.322447 12.147 0.0099 -2.2166 -28.3108 -1.76177 7.68339 3.6012 -2.84217e-014 3.55271e-015 -39.5762 -1.34656 3.74148 3.3073 2.84217e-014 -7.10543e-015 -1.61252 -0.00232473 0.165147 10.9082 -0.2264 -4.7258 -31.9677 -7.26597 14.3398 4.1367 0 3.55271e-015 -39.1063 -1.31598 3.70418 2.5948 2.84217e-014 0 -39.5033 -1.3418 3.73573 -6.1057 9.1105 0.7056 -15.1359 -0.694839 6.11792 -12.655 -0.266 -2.6009 57.8557 4.18604 -30.4902 -27.4047 0 0 -8.35279e-007 -3.58486e-006 65.6366 -27.6145 -1.42109e-014 0 -21.1847 16.4375 -0.128059 -12.7755 0 -7.10543e-015 -0.839937 0.0905211 1.4553 -3.614 -2.84217e-014 -7.10543e-015 21.0469 -0.311253 -1.6754 -3.4598 -2.84217e-014 7.10543e-015 23.5906 -0.389914 -1.86704 -3.7888 -2.167 3.0031 4.71466 -7.10449 -0.438849 -3.6754 -2.122 2.122 -2.57128 8.39109 -22.3194 -3.3944 -1.9597 1.9598 -16.9959 5.24635 -26.4497 -12.2666 -0.2317 2.8221 0.3352 15.1493 9.59788 -3.892 0 7.10543e-015 19.7195 -0.273598 -1.57406 -3.4152 1.42109e-014 0 21.1896 -0.315432 -1.68623 -12.147 0.0099 -2.2166 14.018 -0.619567 -9.44774 -3.6012 -1.42109e-014 1.42109e-014 21.1269 -0.313594 -1.68146 -3.3073 -1.42109e-014 7.10543e-015 26.2834 -0.482383 -2.06593 -10.9082 -0.2264 -4.7258 37.5062 -8.16142 -20.6845 -4.1367 0 7.10543e-015 26.2876 -0.482538 -2.06623 -2.5948 7.10543e-015 1.42109e-014 29.0771 -0.588109 -2.26746 -9.1245 -6.6564 -0.0554 0.778613 -55.9061 -12.8902 -0.2447 -40.5954 -0.5145 -5.37177 8.10826 7.01754 0.2447 -42.0479 -2.0602 11.6434 -13.3897 -5.28049 -0.3734 -10.4922 12.6407 -1.6642e-006 7.66573 -9.77376e-007 9.1245 -6.6564 -0.0554 9.5094 -2.26436 12.8451 0.2447 -40.5954 -0.517 -0.729893 22.64 10.4136 -0.2447 -42.048 -2.0576 -19.1856 -8.08409 5.62123 0.3734 -10.4922 12.6407 -2.97218 -21.3831 -1.00381 
3.81273 89.5765 88.7571 0.444329 19.123 4.02123 8.88178e-016 9.9235 -1.2273 5.41782 9.18683 -8.42181 -0.0001 11.6454 -1.4223 3.63764 6.59089 -4.78243 0.0001 13.3602 -1.6265 3.81542 6.58527 -4.68236 0 15.0325 0.7929 -1.12708 -7.39188 1.60229 0 10.3218 3.1424 -6.20973 -10.0869 7.068 0.0002 18.4747 6.6364 -3.97569e-016 3.18055e-015 -0 2.9479 7.6817 9.1207 -3.97569e-016 3.18055e-015 -0 -2.9445 7.6817 9.1205 -3.97569e-016 3.18055e-015 -0 6.1058 9.1104 0.7056 24.0109 -1.44732 -7.54453 12.655 -0.2659 -2.6009 -37.8784 -26.8629 -15.6876 27.4047 0 7.10543e-015 -5.29943e-006 2.19022e-006 -69.1854 27.6145 0 3.55271e-015 13.0323 2.73778 -4.99921 12.7755 0 0 -27.4346 -1.69412 4.83329 3.614 -2.84217e-014 7.10543e-015 -42.4329 -1.53889 3.9628 3.4598 2.84217e-014 0 -3.30919 -0.00977801 0.338745 3.7888 -2.167 3.0031 3.06483 -4.53276 -5.77537 3.6754 -2.122 2.122 2.47789 10.0074 31.4013 3.3944 -1.9597 1.9598 17.7464 7.93603 33.4345 12.2666 -0.2317 2.8221 -36.509 0.643542 0.611188 3.892 0 0 -44.3093 -1.67114 4.10281 3.4152 0 0 -4.94639 -0.0218588 0.506018 12.147 0.0099 -2.2166 -29.2002 -1.83853 7.72564 3.6012 0 0 -40.8303 -1.42963 3.83981 3.3073 -2.84217e-014 0 -2.10162 -0.00394193 0.215211 10.9082 -0.2264 -4.7258 -32.5753 -7.41996 14.3258 4.1367 0 0 -39.5946 -1.34776 3.74296 2.5948 2.84217e-014 -3.55271e-015 -39.1063 -1.31598 3.70419 -6.1057 9.1105 0.7056 -16.2594 -0.633426 5.52535 -12.655 -0.266 -2.6009 59.527 2.57753 -31.1611 -27.4047 0 -1.42109e-014 -2.06285e-005 1.68082e-005 68.7482 -27.6145 -1.42109e-014 0 -25.3846 10.7236 6.47399 -12.7755 0 7.10543e-015 -1.1224 0.101368 1.4792 -3.614 2.84217e-014 7.10543e-015 19.7292 -0.273854 -1.57481 -3.4598 0 0 21.7108 -0.330955 -1.72574 -3.7888 -2.167 3.0031 4.71466 -7.10449 -0.438849 -3.6754 -2.122 2.122 -2.57128 8.39109 -22.3194 -3.3944 -1.9597 1.9598 -16.9959 5.24635 -26.4497 -12.2666 -0.2317 2.8221 1.26347 15.1115 9.48637 -3.892 2.84217e-014 -7.10543e-015 19.3321 -0.263057 -1.54434 -3.4152 0 7.10543e-015 19.8749 -0.277879 -1.58597 -12.147 0.0099 -2.2166 13.1304 -0.567637 -9.42737 -3.6012 0 7.10543e-015 19.8079 -0.276028 -1.58083 -3.3073 0 0 24.0612 -0.405398 -1.90211 -10.9082 -0.2264 -4.7258 36.2912 -7.75513 -20.8033 -4.1367 1.42109e-014 -7.10543e-015 24.064 -0.405485 -1.90232 -2.5948 -7.10543e-015 -1.42109e-014 26.6582 -0.496004 -2.09325 -9.1245 -6.6564 -0.0554 -1.1493 -58.5065 -14.2935 -0.2447 -40.5954 -0.5145 -5.36295 7.37598 6.50916 0.2447 -42.0479 -2.0602 12.069 -13.0488 -6.12462 -0.3734 -10.4922 12.6407 -2.5356e-006 5.41245 1.79062e-006 9.1245 -6.6564 -0.0554 10.1759 0.132858 12.9497 0.2447 -40.5954 -0.517 -0.690449 21.9605 10.9672 -0.2447 -42.048 -2.0576 -19.7223 -7.55339 4.47779 0.3734 -10.4922 12.6407 -2.08435 -23.7577 -0.8012 
4.02344 88.0611 93.1242 -0.00068564 19.8162 6.04481 0 9.9235 -1.2273 6.41333 9.34328 -9.05839 -0.0001 11.6454 -1.4223 4.11773 6.6007 -5.01106 0.0001 13.3602 -1.6265 4.22369 6.59886 -4.90037 0 15.0325 0.7929 -0.995563 -7.86287 1.61292 0 10.3218 3.1424 -6.70087 -12.244 6.97556 0.0002 18.4747 6.6364 1.98785e-016 0 -7.95139e-016 2.9479 7.6817 9.1207 1.98785e-016 0 -7.95139e-016 -2.9445 7.6817 9.1205 1.98785e-016 0 -7.95139e-016 6.1058 9.1104 0.7056 22.3882 -1.52234 -7.23045 12.655 -0.2659 -2.6009 -39.9767 -26.2312 -21.6253 27.4047 -2.84217e-014 7.10543e-015 8.81105e-007 -4.26592e-006 -68.2021 27.6145 0 3.55271e-015 11.3193 2.18375 -10.7098 12.7755 0 0 -28.7362 -1.80521 4.9273 3.614 0 0 -44.8008 -1.70653 4.13878 3.4598 -2.84217e-014 0 -5.28487 -0.0249501 0.540531 3.7888 -2.167 3.0031 2.4596 -3.7798 -5.8253 3.6754 -2.122 2.122 2.47789 10.0074 31.4013 3.3944 -1.9597 1.9598 17.7464 7.93603 33.4345 12.2666 -0.2317 2.8221 -37.8973 0.626832 0.768776 3.892 0 0 -46.9398 -1.86413 4.29174 3.4152 0 0 -7.31913 -0.0478217 0.747619 12.147 0.0099 -2.2166 -30.3747 -1.94139 7.77855 3.6012 0 0 -42.8029 -1.5646 3.99074 3.3073 2.84217e-014 -7.10543e-015 -3.49362 -0.0108971 0.357611 10.9082 -0.2264 -4.7258 -33.5318 -7.66188 14.3005 4.1367 0 0 -40.9843 -1.43998 3.85177 2.5948 2.84217e-014 7.10543e-015 -39.6525 -1.35154 3.74751 -6.1057 9.1105 0.7056 -16.7084 -0.525173 4.74492 -12.655 -0.266 -2.6009 61.2064 0.661001 -31.5056 -27.4047 0 0 -2.91286e-006 -2.78286e-006 71.4205 -27.6145 0 7.10543e-015 -28.4023 4.5729 13.6849 -12.7755 2.84217e-014 0 -0.733829 0.0864098 1.44654 -3.614 2.84217e-014 0 19.038 -0.255182 -1.52171 -3.4598 0 0 20.2997 -0.289763 -1.61845 -3.7888 -2.167 3.0031 4.71466 -7.10449 -0.438849 -3.6754 -2.122 2.122 -2.57128 8.39109 -22.3194 -3.3944 -1.9597 1.9598 -16.9959 5.24635 -26.4497 -12.2666 -0.2317 2.8221 2.72561 15.0494 9.30572 -3.892 0 -7.10543e-015 19.9173 -0.279064 -1.58922 -3.4152 2.84217e-014 7.10543e-015 19.1853 -0.259102 -1.53304 -12.147 0.0099 -2.2166 12.6648 -0.540788 -9.41578 -3.6012 0 7.10543e-015 19.1158 -0.257256 -1.5277 -3.3073 1.42109e-014 7.10543e-015 22.1925 -0.345624 -1.76213 -10.9082 -0.2264 -4.7258 35.3803 -7.4493 -20.886 -4.1367 0 0 22.194 -0.345669 -1.76225 -2.5948 0 7.10543e-015 24.5064 -0.420316 -1.93516 -9.1245 -6.6564 -0.0554 -4.53642 -60.6061 -17.096 -0.2447 -40.5954 -0.5145 -5.37245 8.17115 6.77229 0.2447 -42.0479 -2.0602 11.785 -13.6813 -7.90043 -0.3734 -10.4922 12.6407 -4.62233e-008 4.81398 9.31734e-007 9.1245 -6.6564 -0.0554 11.2509 1.32724 13.151 0.2447 -40.5954 -0.517 -0.674771 22.6311 11.6485 -0.2447 -42.048 -2.0576 -19.4083 -5.66201 3.15363 0.3734 -10.4922 12.6407 -1.30898 -27.3169 -0.58596 
4.14149 86.7191 97.2951 -0.40079 20.5064 7.83818 -1.77636e-015 9.9235 -1.2273 7.17956 9.57188 -9.61183 -0.0001 11.6454 -1.4223 4.37673 6.63517 -5.22515 0.0001 13.3602 -1.6265 4.47087 6.6383 -5.1391 0 15.0325 0.7929 -0.886769 -8.31807 1.57881 0 10.3218 3.1424 -7.17684 -14.3416 6.38459 0.0002 18.4747 6.6364 -5.96354e-016 -6.36111e-015 7.95139e-016 2.9479 7.6817 9.1207 -5.96354e-016 -6.36111e-015 7.95139e-016 -2.9445 7.6817 9.1205 -5.96354e-016 -6.36111e-015 7.95139e-016 6.1058 9.1104 0.7056 20.683 -1.57447 -7.22294 12.655 -0.2659 -2.6009 -42.7147 -24.9989 -23.9263 27.4047 0 -1.42109e-014 -2.30028e-006 1.46772e-006 -71.3895 27.6145 0 0 9.03526 0.0860796 -12.8317 12.7755 0 0 -30.2308 -1.93538 5.0321 3.614 0 0 -47.661 -1.91856 4.34198 3.4598 0 7.10543e-015 -7.88431 -0.0554674 0.805029 3.7888 -2.167 3.0031 1.78703 -2.94501 -5.87516 3.6754 -2.122 2.122 2.47789 10.0074 31.4013 3.3944 -1.9597 1.9598 17.7464 7.93603 33.4345 12.2666 -0.2317 2.8221 -39.4387 0.603783 0.943243 3.892 0 0 -49.96 -2.09614 4.49749 3.4152 0 0 -10.1855 -0.0924967 1.0378 12.147 0.0099 -2.2166 -31.7936 -2.06789 7.8381 3.6012 0 0 -45.3982 -1.74997 4.18211 3.3073 0 0 -5.67567 -0.0287703 0.58038 10.9082 -0.2264 -4.7258 -34.7913 -7.97952 14.261 4.1367 -2.84217e-014 0 -43.1624 -1.58975 4.01773 2.5948 -2.84217e-014 -3.55271e-015 -41.2018 -1.45464 3.86858 -6.1057 9.1105 0.7056 -14.5507 -0.300857 3.85705 -12.655 -0.266 -2.6009 61.6758 -1.69192 -30.1098 -27.4047 1.42109e-014 0 -8.86359e-006 2.06939e-005 73.4685 -27.6145 -1.42109e-014 0 -29.9521 -1.14633 20.9207 -12.7755 -1.42109e-014 1.42109e-014 0.368381 0.0427681 1.354 -3.614 -1.42109e-014 -1.42109e-014 19.1201 -0.257361 -1.52802 -3.4598 0 1.42109e-014 19.4125 -0.265221 -1.5505 -3.7888 -2.167 3.0031 4.71466 -7.10449 -0.438849 -3.6754 -2.122 2.122 -2.57128 8.39109 -22.3194 -3.3944 -1.9597 1.9598 -16.9959 5.24635 -26.4497 -12.2666 -0.2317 2.8221 4.65389 14.9627 9.05853 -3.892 0 7.10543e-015 21.5328 -0.325613 -1.71227 -3.4152 0 -7.10543e-015 19.2669 -0.261298 -1.53932 -12.147 0.0099 -2.2166 12.7198 -0.543944 -9.41717 -3.6012 0 1.42109e-014 19.1977 -0.259438 -1.53399 -3.3073 1.42109e-014 0 20.7229 -0.30184 -1.65074 -10.9082 -0.2264 -4.7258 34.808 -7.25668 -20.9352 -4.1367 -1.42109e-014 0 20.7234 -0.301852 -1.65077 -2.5948 0 0 22.66 -0.36015 -1.79734 -9.1245 -6.6564 -0.0554 -10.5453 -65.5657 -22.3857 -0.2447 -40.5954 -0.5145 -5.53301 16.9798 9.05837 0.2447 -42.0479 -2.0602 5.45051 -15.914 -11.9374 -0.3734 -10.4922 12.6407 3.54619e-006 3.78942 2.24968e-007 9.1245 -6.6564 -0.0554 12.3419 2.05638 13.1358 0.2447 -40.5954 -0.517 -0.66086 23.4631 12.3562 -0.2447 -42.048 -2.0576 -18.6651 -2.63734 2.73425 0.3734 -10.4922 12.6407 -0.581836 -31.742 -0.30321 
